<?xml version="1.0" encoding="UTF-8" ?>
<!DOCTYPE svg PUBLIC "-//W3C//DTD SVG 1.1//EN" "http://www.w3.org/Graphics/SVG/1.1/DTD/svg11.dtd">
<svg width="1067pt" height="1067pt" viewBox="0 0 1067 1067" version="1.1" xmlns="http://www.w3.org/2000/svg">
<g id="#0f2c40ff">
<path fill="#0f2c40" opacity="1.00" d=" M 523.29 196.22 C 527.20 194.34 531.62 197.33 533.17 200.96 C 536.88 209.19 536.40 218.69 533.77 227.17 C 535.70 229.10 537.68 230.99 539.68 232.87 C 538.30 236.89 536.90 240.91 535.13 244.78 C 533.30 243.26 531.51 241.70 529.63 240.25 C 526.14 244.75 524.13 250.16 520.78 254.75 C 512.88 265.68 502.85 274.84 492.49 283.38 C 490.16 285.34 487.57 287.01 484.71 288.09 C 486.18 284.67 488.80 281.97 491.23 279.22 C 495.76 274.40 499.84 269.18 504.27 264.26 C 511.85 255.69 519.27 246.83 524.62 236.65 C 519.30 232.01 510.86 230.00 508.66 222.52 C 506.82 211.90 513.19 200.19 523.29 196.22 M 514.31 212.89 C 517.90 217.56 522.91 220.84 528.11 223.49 C 528.11 218.25 527.54 212.11 522.72 208.96 C 519.71 209.78 516.65 210.72 514.31 212.89 Z" />
<path fill="#0f2c40" opacity="1.00" d=" M 675.41 416.21 C 698.64 407.19 722.12 398.78 745.62 390.49 C 745.19 393.32 745.00 396.21 744.17 398.96 C 743.35 399.91 742.00 400.10 740.92 400.61 C 718.72 408.89 696.48 417.05 674.12 424.86 C 674.50 421.97 674.94 419.09 675.41 416.21 Z" />
<path fill="#0f2c40" opacity="1.00" d=" M 523.54 404.58 C 527.93 397.14 536.70 393.74 544.87 392.53 C 552.67 391.46 561.44 391.12 568.22 395.75 C 572.15 399.28 568.42 404.83 565.15 407.34 C 564.71 404.47 564.00 401.04 560.75 400.16 C 550.42 396.66 538.98 397.63 528.78 401.17 C 530.83 404.52 534.35 406.52 537.80 408.17 C 548.76 413.15 560.49 416.65 570.55 423.43 C 574.01 425.91 577.72 429.41 577.71 433.99 C 576.72 438.49 573.48 442.28 569.73 444.83 C 567.28 446.62 564.12 445.54 561.65 444.38 C 551.56 439.50 541.34 434.87 531.29 429.89 C 523.56 426.38 515.02 423.36 509.50 416.55 C 504.94 411.42 505.33 403.70 507.74 397.68 C 508.86 400.92 509.38 404.54 511.70 407.23 C 515.62 412.18 521.17 415.41 526.58 418.49 C 536.90 424.61 548.16 428.89 558.92 434.14 C 563.17 436.16 567.37 438.56 572.13 439.16 C 571.33 435.99 570.09 432.65 567.24 430.77 C 555.28 422.28 540.39 419.55 527.97 411.97 C 525.78 410.28 521.62 407.77 523.54 404.58 Z" />
<path fill="#0f2c40" opacity="1.00" d=" M 831.90 396.06 C 835.02 394.91 838.18 393.88 841.36 392.89 C 841.05 395.84 840.64 398.80 839.81 401.66 C 816.59 410.67 793.15 419.11 769.67 427.40 C 770.06 424.37 770.60 421.37 771.27 418.39 C 791.42 410.81 811.71 403.57 831.90 396.06 Z" />
<path fill="#0f2c40" opacity="1.00" d=" M 395.53 531.62 C 396.73 528.82 398.61 525.61 401.91 525.12 C 407.24 525.93 410.27 531.02 413.18 535.03 C 412.10 537.70 410.91 540.34 409.58 542.91 C 406.81 540.25 403.73 537.84 400.04 536.63 C 398.58 538.26 396.86 539.83 396.28 542.02 C 392.32 555.36 392.51 569.52 388.85 582.92 C 388.45 585.15 386.42 586.39 384.80 587.70 C 381.45 574.66 378.11 561.16 370.09 550.07 C 369.02 550.94 367.97 551.83 366.92 552.73 C 362.38 551.57 357.29 549.50 355.19 545.01 C 354.13 540.28 357.48 535.83 360.27 532.36 C 366.79 532.52 372.12 537.20 375.81 542.19 C 381.60 550.33 384.43 560.11 386.58 569.74 C 386.91 569.88 387.56 570.15 387.89 570.29 C 388.94 568.13 388.31 565.43 388.83 563.09 C 390.64 552.53 391.31 541.60 395.53 531.62 Z" />
<path fill="#0f2c40" opacity="1.00" d=" M 245.89 550.02 C 247.15 546.34 247.43 541.93 250.76 539.39 C 250.47 549.23 247.02 558.60 244.10 567.90 C 239.52 582.46 232.72 596.60 231.63 612.02 C 231.25 619.15 232.00 627.32 237.50 632.52 C 241.28 636.47 247.63 637.88 252.63 635.55 C 256.19 631.52 257.60 625.60 262.74 623.03 C 262.21 630.78 260.76 638.58 257.59 645.71 C 255.94 649.52 251.98 651.72 250.59 655.69 L 250.31 655.50 C 250.12 655.35 249.72 655.06 249.52 654.91 C 247.47 655.29 245.45 655.78 243.40 656.18 C 236.60 656.20 230.24 652.04 226.57 646.46 C 221.42 637.95 220.60 627.51 222.37 617.89 C 226.25 594.03 239.19 573.04 245.89 550.02 Z" />
</g>
<g id="#ffffffff">
<path fill="#ffffff" opacity="1.00" d=" M 683.90 255.83 C 689.20 255.08 695.22 253.90 700.03 256.97 C 704.65 260.74 705.38 267.50 704.10 273.00 C 700.74 289.15 691.44 303.10 682.81 316.86 C 671.89 333.55 659.45 349.21 648.99 366.20 C 644.68 373.35 640.64 380.65 636.64 387.96 C 636.08 388.16 634.97 388.55 634.42 388.75 C 636.10 378.42 639.34 368.33 644.17 359.04 C 647.22 353.02 651.22 347.56 654.96 341.96 C 663.17 329.87 671.70 318.00 680.20 306.10 C 684.33 299.98 689.45 294.16 691.40 286.88 C 692.21 285.48 690.47 283.89 689.14 283.99 C 683.70 283.87 678.42 285.49 673.13 286.54 C 652.18 291.86 631.57 298.38 611.00 304.99 C 570.96 317.92 531.28 332.00 492.14 347.43 C 476.00 353.94 459.91 360.61 444.13 367.96 C 436.80 371.53 429.46 375.20 422.78 379.89 C 421.53 380.61 422.55 381.96 423.51 382.33 C 469.16 414.10 512.70 448.83 554.49 485.51 C 568.52 497.80 581.97 510.72 595.28 523.79 C 604.68 532.72 614.27 541.45 623.68 550.37 C 630.54 556.82 637.53 563.44 646.12 567.54 C 657.58 572.97 670.63 573.70 683.08 572.53 C 691.43 571.96 699.58 569.70 707.36 566.67 C 703.88 559.26 702.23 551.10 701.91 542.95 C 701.57 535.90 701.60 528.64 703.96 521.90 C 709.00 507.01 717.98 493.19 730.60 483.66 C 734.26 481.36 738.29 478.21 742.91 479.48 C 748.81 480.57 752.70 485.61 755.20 490.70 C 763.36 505.93 764.91 524.36 760.09 540.89 C 757.80 550.10 752.44 558.09 746.91 565.65 C 756.01 569.74 766.07 571.34 776.00 571.29 C 790.24 571.70 804.60 569.31 817.83 563.97 C 820.24 563.07 822.23 561.41 824.11 559.70 C 822.11 547.55 818.10 535.68 811.84 525.05 C 810.35 522.87 809.92 520.15 810.65 517.60 C 812.72 509.80 812.95 501.62 815.29 493.87 C 827.64 508.55 832.92 528.13 833.50 547.03 C 832.78 559.63 830.92 572.86 823.67 583.55 C 820.90 587.90 816.52 590.98 811.73 592.77 C 788.82 600.85 762.68 603.20 739.90 593.43 C 734.55 591.18 729.62 588.10 724.55 585.31 C 722.84 584.36 721.04 585.62 719.58 586.45 C 707.58 593.84 694.18 599.37 680.07 600.82 C 669.33 601.59 658.23 601.83 647.86 598.44 C 639.55 595.84 632.18 590.93 625.64 585.28 C 595.79 559.23 567.87 531.03 537.66 505.39 C 532.43 500.94 527.03 496.71 521.95 492.10 C 519.07 489.76 516.34 487.04 512.80 485.72 C 525.01 500.71 538.83 514.73 547.61 532.18 C 553.00 542.54 558.16 554.13 555.89 566.10 C 554.98 576.90 551.91 588.14 543.94 595.93 C 540.15 599.60 535.56 602.31 530.84 604.60 C 490.60 624.19 445.88 631.86 405.11 650.11 C 388.24 658.24 372.40 668.88 359.44 682.48 C 340.40 701.76 323.40 723.30 301.59 739.65 C 296.51 743.23 291.15 746.91 284.95 748.13 C 277.97 748.24 270.63 749.12 264.13 745.95 C 252.22 741.44 243.55 730.82 239.65 718.91 C 234.09 701.85 234.94 683.16 240.22 666.13 C 241.18 662.78 242.39 659.51 243.40 656.18 C 245.45 655.78 247.47 655.29 249.52 654.91 C 249.72 655.06 250.12 655.35 250.31 655.50 L 250.54 655.66 C 243.92 669.57 241.77 685.56 243.70 700.80 C 244.77 709.49 249.40 718.47 257.69 722.20 C 266.95 726.13 277.69 724.50 286.57 720.30 C 299.67 713.89 310.01 703.34 320.31 693.27 C 332.31 681.95 343.52 669.83 354.78 657.79 C 366.92 645.13 381.66 635.18 397.37 627.49 C 417.28 617.23 438.70 610.43 459.96 603.58 C 481.08 596.73 502.50 590.64 522.98 581.98 C 531.06 578.59 538.90 574.58 546.20 569.71 C 540.19 553.80 529.27 540.45 518.54 527.49 C 486.55 489.30 452.57 452.83 418.72 416.30 C 415.53 412.60 412.24 408.97 408.49 405.82 C 409.19 394.17 408.80 382.45 410.28 370.86 C 411.54 362.07 417.64 354.66 425.00 350.03 C 438.56 341.14 453.72 335.14 468.50 328.62 C 508.32 311.72 549.10 297.17 590.10 283.41 C 621.12 273.46 651.89 262.27 683.90 255.83 M 733.71 508.71 C 726.96 511.85 721.71 517.30 716.42 522.39 C 712.91 525.82 710.18 530.83 711.42 535.85 C 714.30 544.20 721.19 550.12 727.29 556.14 C 735.58 551.45 743.70 546.11 750.13 538.99 C 751.82 537.11 750.97 534.32 750.56 532.12 C 748.31 523.95 745.07 515.82 739.51 509.32 C 738.12 507.59 735.50 507.77 733.71 508.71 Z" />
<path fill="#ffffff" opacity="1.00" d=" M 805.97 464.26 C 810.90 456.60 814.66 448.23 819.80 440.69 C 828.66 445.64 837.45 450.72 846.18 455.91 C 842.58 464.83 838.24 473.42 833.84 481.96 C 824.38 476.60 815.44 470.24 805.47 465.83 C 801.58 473.66 797.06 481.15 792.73 488.75 C 783.74 484.27 775.21 478.95 766.60 473.81 C 770.59 465.36 774.39 456.81 778.59 448.46 C 788.01 453.19 797.01 458.72 805.97 464.26 Z" />
<path fill="#ffffff" opacity="1.00" d=" M 710.42 442.06 C 719.43 446.55 728.58 450.81 737.09 456.23 C 733.65 464.89 729.44 473.22 725.38 481.60 C 716.27 477.31 707.63 472.09 698.37 468.13 C 701.90 459.23 706.01 450.55 710.42 442.06 Z" />
</g>
</svg>
